<svg version="1.0" xmlns="http://www.w3.org/2000/svg" width="1440" height="1440" viewBox="0 0 1080 1080"><path d="M404 95.5c-9.3 2.7-22.6 8.8-25.8 11.9-4 3.7-7.2 9.5-7.2 13 0 2.5-3.2 5.6-5.8 5.6-2.8 0-14.9 5.4-20.2 9.1-3 2-6.6 5.2-8 7-1.4 1.7-3.3 4-4.3 5.1-.9 1-2.9 4.4-4.2 7.5-3.4 7.6-3.9 21.5-.9 26.1 2.4 3.8 9.2 11.2 10.2 11.2.4 0 1.3.9 2 2 1 1.7 1 2.4-.3 4.4-.9 1.3-2.2 5.4-3 9.1-2.2 10.6.1 19.5 6.5 24.8 4.2 3.6 15.5 8.8 17.3 8.1 2.7-1 5.9 1.4 5.2 3.9-.9 2.9-3.2 8.3-5.4 12.7-1 1.9-2.4 5.3-3.1 7.5-.7 2.2-3 7.8-5.2 12.5-4.9 10.5-7.7 19-11.8 35.6-1.7 7.1-3.5 14.5-4 16.4-2.5 9.9-1.8 43.9 1 50.2.9 1.8.8 4-.4 9.2-3.8 16.4-.4 46.9 7 62.3 2.3 4.7 4.8 8.3 7.4 10.4 5.5 4.5 9 9.8 9 14 0 10.1 13.9 35.1 26.1 46.9 11.6 11.2 11.6 11.2 14 9.9 2-1 2.5-.9 4.1 1.1 1 1.2 2.1 3.4 2.5 4.9.8 3.2 7.5 15.9 11.2 21.1 1.4 2.1 4.6 6.6 7 10.1 2.4 3.5 6.7 9.3 9.6 12.9 6.4 7.9 32.2 32.8 36.4 34.9 1.6.9 6.7 4.1 11.3 7.2 11.3 7.6 23.5 13.9 41.8 21.4 15.3 6.3 41.9 15 52 17 4.7.9 12.8 2.5 18 3.6 12.7 2.5 46.8 3.5 65 2 17.7-1.5 34.8-4.5 44-7.6 7.8-2.6 23.9-10.4 32.5-15.7 11.9-7.2 30.9-24.7 38.3-35.3 1.9-2.8 4.5-6.4 5.8-8 2.3-3.2 9.4-16.7 9.4-18.1 0-.4.9-2.6 1.9-4.8 5.5-11.4 9.6-34.8 11.1-62.1.4-8.9 2.8-30.2 5.4-48 6-41.9 7.6-50.9 12-66.5 1.5-5.2 3.6-13.7 4.6-18.8 1.1-5.1 2.4-10.2 3-11.2 1.6-2.9 1.2-12.5-1-24-1.1-5.8-2.7-15.1-3.5-20.6-.8-5.6-1.7-10.8-2-11.5-.3-.8-1.1-4.8-1.9-8.9-2.6-14.1-5.6-23-11.1-32.8-2.9-5.3-6.4-11.6-7.7-13.9-11.8-21.2-26.3-41.8-32.7-46.4-1-.8-6.1-5.3-11.4-10-20.8-18.8-49.9-39.4-64.7-45.8-3-1.3-8.6-3.9-12.5-5.7-3.8-1.8-10.1-4.2-14-5.4-11.5-3.6-15.6-5-20.4-6.9-2.5-1-6.4-2.3-8.6-2.9-2.2-.6-8.5-2.6-14-4.3-9.8-3.2-10.5-3.2-32.9-3.7-16.8-.3-28 0-41.7 1.3-20.1 1.8-23.1 1.5-29.1-2.6-1.4-1.1-2.9-1.9-3.3-1.9-.4 0-1.9-.8-3.3-1.9-3-2.1-13-5.2-23.8-7.5-4-.9-14.5-4.5-23.5-8.2-25.2-10.3-31.1-12.5-35.4-13.4-5.9-1.3-19.3-1-24.5.5zM547.6 288c2.6 1 2.6 1.1.9 3-1.6 1.7-6.5 4.9-15.4 10-1.5.8-6.2 4.4-10.4 7.9-12.9 10.7-12.3 13.1 6.7 27.4 1.6 1.2 4.3 3.4 6 4.8 1.7 1.4 4.7 3.4 6.6 4.4 1.9.9 5.3 3.1 7.5 4.7 3.4 2.5 28.7 19 38.7 25.3 1.7 1.1 3.3 2.6 3.6 3.2.4 1.5-3.6 1.7-7 .4-1.3-.5-9.7-3.3-18.8-6.1-9.1-2.9-17.8-5.8-19.5-6.5-5.2-2.3-17.8-5.5-21.7-5.5-2 0-4 .5-4.4 1.2-1 1.6 3 4.6 7.9 5.9 2.3.6 7.4 2.2 11.2 3.6 3.9 1.4 12.9 4.3 20 6.6 7.2 2.3 13.5 4.6 14.2 5 .8.5 1 2.4.6 5.7-.5 4-.1 5.9 2.4 11.2 3.5 7.5 6.3 9.3 16 10.3 5.3.6 6.8.4 11.5-1.7 4.4-2 5.7-3.3 7.3-6.7 1.8-4.1 2-4.2 5.4-3.6 2 .4 5.9 1.7 8.6 2.9 2.8 1.3 9 3.5 13.9 5.1 10.9 3.4 11.9 3.1 18.3-6.3 7.1-10.4 6.6-11.7-10.6-25.2-12-9.5-20.1-16-24.6-20-8.2-7.3-30.3-29.6-32.6-33-1.3-1.9-3.8-4.7-5.6-6.3-1.7-1.5-4.5-4.8-6.1-7.3-1.7-2.4-5.1-6.7-7.6-9.5-5.1-5.6-5.3-6.1-3.1-7.9 1.8-1.5 13.4-.7 23.3 1.6 3.5.7 7.8 1.4 9.7 1.4 1.9 0 4.5.4 5.8.9 1.3.5 8.9 2.3 16.9 4 8 1.7 20.7 5.2 28.4 7.7 7.6 2.5 21.6 7 30.9 9.9 24.4 7.7 55.7 18.3 57.7 19.5 1 .5 7.3 3.2 14 5.9 6.8 2.7 15.2 6.3 18.7 8.1 3.5 1.8 10 4.7 14.5 6.5 4.4 1.8 8.2 3.9 8.4 4.7.3 1.5-8.7 6-22.3 11.4-3.8 1.5-8.6 3.7-10.5 4.9-1.9 1.2-4.6 2.6-6 3-1.4.4-5.1 2.1-8.3 3.7-3.2 1.6-9.5 4.3-14 5.9-4.5 1.7-8.6 3.4-9.2 3.8-.5.5-4.4 2.1-8.5 3.5-4.1 1.5-7.8 3.3-8.2 3.9-1.2 1.8-.9 10.5.4 14.9 1.2 4.1 4.2 7.7 8 9.5 1.3.6 7.9 2.3 14.7 3.9 6.8 1.6 13 3.5 13.8 4.2.8.8 1.1 2.3.7 3.7-.8 3.4 3 11 7.3 14.2 2.9 2.3 4.5 2.7 10.4 2.7 6.8.1 7.1 0 10.2-3.5 1.8-1.9 4-5 4.9-6.8 1.8-3.2 1.8-3.2 8.7-3 7.6.4 10.1-.8 10.1-4.7 0-1.9-.7-2.4-3.7-2.9-2.1-.3-5.8-1.1-8.3-1.6-2.5-.6-8.5-1.7-13.5-2.5-28.3-4.5-31.4-5.1-36.9-7.3-1.6-.7-2.5-1.5-2-1.9 1.1-1 31.4-8.3 46.4-11.2 12.3-2.5 20.8-5.3 26.8-8.9l4.4-2.6-.6-6c-.5-5.9-3.7-18.3-5.6-21.7-2.6-4.7.4-5 7.8-.8 4.4 2.6 5.2 3.5 5.2 5.9 0 4.1-2 12.9-3.8 17.1-.8 1.9-1.7 5.1-1.9 7-.2 1.9-1 5.2-1.8 7.3-1.8 4.4-5.3 26.8-6.6 41.2-.5 5.5-1.3 12-1.8 14.5-2.3 10.6-2.3 10.6-7.1 65.3-.5 6.6-1.2 12.2-1.4 12.6-.3.4-1 4.1-1.5 8.2-2.5 18.3-11.1 41-19.9 52.6-9.5 12.5-11.7 14.9-19.5 21.3-4.3 3.6-8.9 7.5-10.1 8.8-3.6 3.4-8.9 6.8-21.7 13.7-9.6 5.2-14 6.9-24.1 9.3-34 8.2-70.6 11.2-87.9 7.3-2.4-.6-9.8-1.9-16.4-3.1-22-3.8-30-5.9-47-12.3-2.2-.8-9.8-3.7-17-6.3-7.1-2.6-13.5-5.1-14.1-5.6-.6-.4-4.7-2.6-9-4.7-8.9-4.3-28.7-17.2-38-24.7-3.4-2.7-7.4-5.8-8.9-6.9-4.3-3.1-9.8-7.8-11.8-10-5.2-6-8.4-10.1-16.3-21-4.7-6.6-9.3-13.3-10.3-14.9-.9-1.6-3-4.9-4.7-7.5-8.8-13.3-12-21.5-17.8-46.5-.9-3.9-2.5-7.9-3.6-9.1-2.4-2.6-2.5-5.2-.3-7.7 1.5-1.7 1.5-1.9-.2-3.8-.9-1-3.8-2.7-6.4-3.6-21.1-7.8-32.6-17.8-39-34.2-5.6-14.1-7.1-33.5-3.7-47.2 2.5-10.3 8.6-22.1 15.2-29.4 4.3-4.7 7.2-6.8 12.7-9.3 6.5-2.9 8.2-3.2 16.8-3.3 6.9 0 11.1.5 15 1.9 12.2 4.3 15.3 6.3 23.9 15.1 11.4 11.7 12.6 12.3 27.3 12.4l11.9.1 3.3-4c1.9-2.1 3.6-5.5 4-7.5.3-1.9 1.3-5.8 2.1-8.5.7-2.8 2.5-10 3.9-16 2.2-9.6 5.8-21.5 13.9-46.5l2.2-6.5 5.9-.8c19.2-2.6 40.6-3.4 45.1-1.7z"/><path d="M509.9 385.7c-2.3 2.7-1.7 19.4.9 27.7 3.4 10.7 9.4 20.7 15.4 25.7 2.9 2.4 6.8 5.8 8.8 7.6 4.2 3.7 16.8 10.5 22.5 12.1 29.4 8.2 55.6 3.9 70.6-11.6 11.5-11.9 13.1-14.2 12.4-17-1.2-4.9-4.9-5.4-16-2.2-9.2 2.6-16.3 2.5-33.7-.5-21.6-3.7-21.2-3.5-48.3-19-6.1-3.5-16.4-13.3-20.2-19.2-3.1-4.9-3.7-5.3-7.2-5.3-2.4 0-4.4.6-5.2 1.7zm-131.8 3.1c-1.4 2.7 1.3 6.2 4.7 6.2 3.3 0 6.6 2.2 11.9 7.8 4.3 4.5 6.6 4.8 7.7.9 1.4-5.4-11.8-16.7-19.6-16.7-2.6 0-4 .6-4.7 1.8zm330.5 61.5c-.9 3.6 1.1 13.5 3.3 17 1.1 1.8 2.9 4.8 4 6.8 2.1 3.8 4 5.7 12.9 13.2 11.5 9.6 25.4 14.2 38.4 12.6 13.5-1.6 18.4-5.4 24.2-18.5 2.3-5 2.5-6.5 1.6-8.8-1-2.7-1.3-2.8-4.8-2-2 .5-9.5.8-16.7.8-22-.3-37.4-5.9-53.4-19.6-5.1-4.4-8.6-4.9-9.5-1.5zM693.1 491c-1.2 1.7-4 3.8-6.2 4.6-4.1 1.7-5.1 4.2-2.4 6.4 2.2 1.8 7.8-.4 11.5-4.6 3-3.5 3.5-5 2.4-7.8-.9-2.4-2.8-1.9-5.3 1.4zm-92.8 109.1c-5.9 1.7-3.4 6.9 3.2 6.9 2.9 0 12.5-3.8 12.5-5 0-2.5-9.5-3.7-15.7-1.9zM284.5 401.4c-11.9 4.2-37.6 5.2-58.4 2.3-18.8-2.7-26.5-1.5-60.1 9.5-3.6 1.1-7.9 3.1-9.7 4.4-1.7 1.3-3.4 2.4-3.8 2.4-.8 0-10.3 7.5-15 12-9 8.4-18.5 19.6-18.5 21.8 0 .5-1.4 3.4-3 6.4-3.5 6.5-7.5 17.4-9.7 26.8-2.6 11.4-2.7 11.9-.9 12.6 2.2.8 4-1.5 6.7-8.6 1.1-3 5.4-12.3 9.5-20.5 6.3-12.8 8.5-16.2 15-23.3 16-17.3 30.4-25 56.7-30.2 11-2.2 34.5-2.7 41-.9 4.5 1.2 20.8-.1 38.6-3.2 7.5-1.2 16.5-1.9 26.5-2 17.3-.1 20-.6 20.4-3.7.4-2.7-1.7-3.6-11.8-5.1-14.2-2-19.3-2.2-23.5-.7zM187 485.9c0 1.8 4.2 6.1 8.6 8.5 6.3 3.5 12.9 4.6 35.9 5.6 23.6 1.1 38.8 3.1 54.5 7.1 6.3 1.6 12.1 2.9 12.8 2.9 2.1 0 28.2 9.9 32 12.1 1.8 1 3.7 1.9 4.2 1.9s4.6 2.3 9.2 5.1c4.6 2.9 9.9 6.1 11.8 7.2 9.3 5.4 14.9 9.7 23 17.6 4.8 4.7 9.8 9.5 10.9 10.6 1.2 1.1 11.1 11.1 22.1 22.2 13.2 13.5 20.5 20.3 21.9 20.3 2.9 0 2.6-1.8-1.4-7-1.9-2.5-5.1-7-7.2-10-2.1-3-9.8-11.7-17.3-19.3-7.4-7.5-13.8-14.4-14.3-15.2-.5-1-.2-2.6.9-4.5 1.7-2.8 1.7-3-.1-5-2.4-2.7-4.1-2.5-6.1.5-2.3 3.5-4.5 3.1-10-1.8-25.7-22.5-36.8-29.7-59.1-38.1-27.8-10.5-49.4-14.4-87.3-15.6-25.6-.8-28-1.1-34.9-3.4-7.9-2.8-10.1-3.1-10.1-1.7zm-88.6 38.9c-.7.4-2.8 2.7-4.9 5.2-2.1 2.5-6.8 7.8-10.6 11.7-10.4 11.2-15.2 18.1-18.6 26.8-6 15.6-6.6 23.7-2.8 36.9 2.9 9.9 4.3 12.5 9.7 17.9 2.2 2.2 3.8 4.7 3.8 6.1 0 1.3-1.5 6.8-3.4 12.2-2.3 6.6-3.6 12.6-4 18-.6 9.9-1.8 13.1-5.2 14.4-1.4.6-4 2.1-5.8 3.5-1.8 1.4-3.6 2.5-4 2.5-.6 0-12 7.4-18.6 12-7.8 5.6-15.8 13.5-24 23.5C.4 727.2 0 728 0 735.7v6.7l2.9-4.5c13.6-20.4 28.7-36.4 43.6-46.3 5-3.3 10.9-7.5 13.2-9.3 3.1-2.5 4.4-3 5-2.1.4.7 1.1 6.2 1.4 12.3.3 6 1.1 14.5 1.8 18.7 1.5 9.7 7.5 31 10.2 36.3 1.2 2.2 2.9 5.6 3.9 7.5 1.8 3.3 8 12.2 18 25.7 2.5 3.4 6.4 7.3 8.8 8.8 2.3 1.6 4.2 3.1 4.2 3.4 0 .4 3.5 3 7.8 5.9 4.2 2.9 10 6.8 12.7 8.8 7.3 5.3 13.6 7.9 26.5 11.2 24.9 6.4 32 6.9 60.2 4.2 13-1.3 13.8-1.3 15.8.5 1.1 1 2 2.3 2 2.9 0 .6 1.6 3.1 3.5 5.5s3.5 4.7 3.5 5.1c0 .5 1.5 2.6 3.3 4.8 1.7 2.2 4.8 6.3 6.7 9.1 1.9 2.8 4.8 6.8 6.3 8.9 1.6 2 3.5 5 4.3 6.7 2.3 5.2 20.9 30.5 28.1 38.5 2.3 2.5 5.8 7 7.9 10 6.7 9.9 9.7 13.3 23.5 27 7.5 7.4 16.3 16.5 19.5 20.3 5.5 6.1 7 7.2 16.3 11.2 5.7 2.5 13.4 5.4 17.2 6.5 3.7 1.1 7 2.4 7.3 2.9.3.4-1 4-3 7.9-6.4 13.3-7.6 17.2-8.1 27.2-.7 11.9 1.8 29.8 5.4 39.5 2.8 7.6 8.5 14.1 17.2 19.7l4.5 2.8h316.3l1.1-6.3c.6-3.4 1.8-10 2.7-14.7 4-21.8 4.9-46.1 2.2-59.9-1.9-9.9-1.5-11.7 2.5-10.7 7.8 1.8 63.5-11.2 77.1-18.1 5.8-2.9 5.8 1.1 0 8.7-12.8 16.9-21.8 38.2-24.2 57.2-1.6 12-3.1 28.8-3.4 36.6l-.3 7.2h4.3c4 0 4.3-.2 4.4-2.8.2-9.3 1.1-20.3 1.9-24.2.5-2.5 1.4-8.3 2-13 .6-4.7 1.7-10.5 2.4-13 .8-2.5 2.2-7.4 3.2-11 2.4-8.7 9.1-23.2 14.7-31.6 6.2-9.4 10.6-15.4 12.3-17.1.8-.8 1.8-2.2 2.4-3.2.5-1 5.3-4.4 10.7-7.6 5.4-3.2 11.8-7.1 14.3-8.6 4.3-2.6 15.3-8 23-11.2 13.5-5.8 51.1-8.9 68.1-5.7 6.3 1.2 10.1 2.9 6.7 3-.7.1-4.9.7-9.3 1.6-4.4.8-11.1 1.8-15 2.3-4.2.5-9.8 2.1-14 4.1-15.5 7.1-27.3 13.6-32.5 17.9-3 2.5-6.3 5.3-7.3 6.1-3.9 3-17.8 21.3-20.9 27.3-4.7 9.3-9.7 23.9-12.4 36.2-1.3 6-2.8 12.3-3.4 14-1.7 5.3-3.8 24.8-3.2 30.7l.4 5.8h9.8v-12.4c0-11.5 1-19 5.1-38.1 1.2-5.8 7-20.7 10.5-26.8 1.3-2.3 3.3-6 4.5-8.2 2.8-5.2 7.1-11.3 10.1-14.5 11.8-12.3 30.2-25.8 35.4-25.9 1.1-.1 2.4-.5 3-.9 1.3-1.2 11.7-4.7 19.9-6.7 10-2.4 42.2-2.5 55.8-.2 8.8 1.5 18.8 4.3 23.5 6.6 14.9 7 15.7 7.6 30.9 22.8 8.4 8.4 15.3 15.7 15.3 16.3 0 .6 1.4 3.2 3.1 5.7 1.9 2.7 3.7 7.2 4.5 10.7.7 3.4 1.9 9 2.8 12.6.8 3.6 1.7 8.5 2.1 11 .4 2.4.8 4.7 1 5.1.7 1 4.5 34.1 4.5 38.6v4.3h10l-.1-43.8c-.1-24-.3-42.8-.6-41.7-1.5 7.1-.9 6.6-7 6.3-4.4-.2-5.8-.7-6.7-2.3-.6-1.1-1.9-3.2-2.8-4.7-2-3-2.4-7.8-.6-7.8.6 0 4.9-3.9 9.5-8.7l8.3-8.8v-8.2c0-9.5.2-9.4-9.9-6.8-7.1 1.8-15.2 5.7-20.9 10.1-2.5 1.9-5.2 3.4-6.1 3.4-.9 0-4.8-2.8-8.8-6.3-7.2-6.3-17.5-12-34.8-19.3-4.9-2.1-10.2-4.6-11.6-5.5-9.8-6.7-49.4-15.9-68-15.9-9.5 0-32.9 2.2-40.6 3.8-6.7 1.4-24.1 9.2-33.8 15.2-4.9 3-9.7 5.9-10.7 6.5-8.6 5.2-14.6 9.1-16.4 10.6-1.1 1.1-5.4 2.8-9.5 4-4.1 1.1-13.5 4-20.9 6.4-7.4 2.4-17.9 5.2-23.2 6.4-29.5 6.4-30.6 6.5-36 6.2-1.6-.1-22.4-23.5-26.1-29.4-1.9-3-15.7-18.8-19.4-22.2-2.1-2-7.1-8-20.8-25-3.8-4.8-9.3-11.3-12.2-14.4-2.8-3.1-8.2-9.1-12-13.5-3.7-4.3-10.9-12.4-15.9-18-5-5.5-11.4-13-14.4-16.6-6.6-8.1-19-21.1-25.5-26.8-6-5.2-54.5-29.6-70-35.2-2.7-1-11.5-4.4-19.5-7.5-8-3.1-17.4-6.5-21-7.5-3.6-.9-9.4-2.8-13-4.2-3.6-1.4-8.8-3.4-11.7-4.4-6-2-12.3-7.9-22.8-21.4-2.8-3.6-6.8-8.3-8.9-10.5l-3.8-4 .6 3c.4 1.6 1.6 4.1 2.6 5.5 1.1 1.4 3.2 4.5 4.7 7 1.4 2.5 3.5 5.5 4.6 6.7 2.6 2.9 1.9 5.9-1.3 5.5-1.4-.2-3-.8-3.5-1.2-1.5-1.2-24.8-8.7-32.9-10.5-3.8-.9-8.8-2.7-11.1-4.1-2.3-1.3-7.3-3.5-11.1-4.8-3.8-1.4-10.4-4-14.7-5.8l-7.9-3.3-.3-19.5c-.3-19.2-1.6-28.6-6.4-47.7-4.5-17.8-25.5-47.3-33.7-47.3-3.2 0-3 1.4 1 6.9 19.8 27.2 24.2 38.4 28.2 71.7 1.7 13.5 2.4 23.4 2 25.8l-.7 3.8-4-.7c-2.3-.4-5.3-1.3-6.7-2.1-1.5-.8-3.4-1.4-4.2-1.4-.8 0-2.8-.8-4.5-1.8-1.6-1-5.9-2.6-9.5-3.6-3.6-1-8.7-2.9-11.3-4.3-6-3-12-2.9-12.5.2-.5 3.4 5.6 8.2 13.8 11 4.1 1.4 9.4 3.5 11.7 4.5 2.3 1.1 8.6 3.4 14 5.1 14.6 4.6 17.9 5.8 27.8 10.4 5 2.3 13.7 5.9 19.5 7.8 10.6 3.7 26.3 9.2 40 14.1 4.1 1.5 11.4 4.1 16.3 5.7 4.8 1.6 10.2 3.8 12 4.9 1.7 1 6.5 2.6 10.5 3.4 4 .8 8.7 2.2 10.4 3.1 1.7.8 3.5 1.5 4 1.5 1.3 0 27.6 9.5 43.3 15.7 17.4 6.9 35.5 14.9 43 19.1 1.1.6 8.1 4 15.5 7.5l13.5 6.4 11.5 12.8c6.3 7.1 12.6 14.2 14 15.8 1.4 1.6 8 8.6 14.8 15.6 6.8 6.9 13 13.8 13.8 15.3.8 1.5 2 3.1 2.7 3.5.7.4 2.7 2.8 4.5 5.3 1.8 2.4 5.2 6.7 7.6 9.5 2.5 2.7 7.9 9 12.1 14 4.3 4.9 8.9 10.3 10.2 11.9 1.4 1.5 3.5 4.3 4.8 6.2 1.3 1.9 3.7 4.9 5.5 6.6 3.1 3.3 25.8 29.1 29.5 33.7 1.1 1.3 3.9 4.5 6.2 7 2.4 2.5 4.3 5.1 4.3 5.7 0 1.8-1.1 2.3-2.9 1.4-.9-.4-5.1-2.3-9.5-4.1-6.6-2.7-8.5-4.1-11.8-8.3-3.7-4.8-15.8-18.5-22.3-25.1-6.4-6.5-15.7-18-17.6-21.7-1.1-2.1-2.3-3.8-2.8-3.8-.4 0-1.9-1.5-3.2-3.4-2.6-3.7-9.9-12.1-19.4-22.5-3.4-3.6-7.5-8.7-9.3-11.3-1.8-2.6-4-5.3-5-6-1-.7-2.7-2.5-3.8-3.9-2-2.7-16-18.2-22.4-25-1.9-2-6.6-7.4-10.5-11.9-3.8-4.5-8.1-9-9.5-9.8-1.4-.9-4.3-3.1-6.5-4.9-5-4.1-20.7-11.8-30-14.8-3.9-1.2-7.9-2.7-9-3.3-4.7-2.7-23.6-9.2-30.8-10.7-4.3-.8-12.4-3.5-18-5.8-5.6-2.4-12.2-4.9-14.7-5.7-2.5-.7-4.9-1.7-5.5-2.1-1.4-1-20.1-8.1-38-14.5-8.2-2.9-17.5-6.2-20.5-7.3-3-1.1-10.9-3.6-17.5-5.7s-12.9-4.3-14-4.9c-1.1-.7-4.7-2-8-2.9-3.3-1-8.7-2.6-12-3.7-3.3-1.1-8.5-2.7-11.5-3.5-3-.8-8.9-2.8-13.1-4.4-4.2-1.6-10.9-3.6-15-4.5-4.1-.9-10.9-2.8-15.1-4.3-6.4-2.1-8.1-2.4-10.3-1.4-2.7 1.2-3.3 3.9-1.2 6.3 2.1 2.5 23.9 9.9 29.5 9.9.9 0 5.5 1.6 10.2 3.6 4.7 2 11 4.2 14 4.9 6.1 1.5 19.2 5.8 32 10.5 4.7 1.7 11.4 4.1 15 5.2 3.6 1.1 9.9 3.1 14 4.4 4.1 1.4 11.2 3.4 15.7 4.5 14.1 3.3 34 10.3 42.6 15 2.1 1.1 8.4 3.6 14 5.5s11.1 3.8 12.2 4.4c1.1.5 4.2 1.8 6.8 3 5.6 2.4 12.9 8.8 16.2 14.1 3.6 5.6 10.1 12.7 16 17.6 3 2.4 5.5 5 5.5 5.7 0 .7 1.5 3.3 3.3 5.7 1.9 2.4 4.1 5.7 5 7.4.9 1.6 2.6 4.1 3.9 5.5 1.3 1.4 4.4 5.2 7 8.5 2.5 3.3 7.1 8.5 10.2 11.5 3.1 3 5.6 5.8 5.6 6.2 0 .5 1.6 3.1 3.5 5.9 2 2.7 4 6.2 4.6 7.6 1.3 3.4 6.6 10.1 9.1 11.4 2.4 1.3 4.8-.4 4.8-3.4 0-1.1-3.4-7.8-7.6-14.8-6.6-11-9.2-14.2-19.8-24.5-6.6-6.6-13.4-13.7-15-15.9-1.6-2.2-5.5-6.7-8.7-10.1-3.1-3.3-6.4-7.7-7.3-9.8-.9-2.1-3.8-6.4-6.6-9.6-2.7-3.2-5-6.5-5-7.4 0-1.9 2.7-2.1 6.7-.5 7.4 3.1 9.5 3.8 19.3 6.8 5.8 1.8 13.2 4.6 16.5 6.1 3.3 1.6 7 3.2 8.3 3.5 2.3.7 22.9 24.9 30.7 36.1 5.3 7.7 21.5 26.6 33 38.5 11.1 11.5 20.5 22.6 22.5 26.5 2.6 5 16.5 21.6 25.9 30.9 9.6 9.5 13.7 14.8 12.6 16.5-.3.5-2.8 1-5.4 1-3.1 0-6.5.9-9.7 2.5-8.9 4.5-10.9 3.5-15.7-8.5-5.6-14.1-8.5-19.6-12.3-23.1-1.9-1.9-4.1-4.6-4.9-6.1-1.8-3.2-17.1-14.8-19.6-14.8-1 0-3.3-1.3-5.1-2.9-11.1-9.6-30.2-14.5-56.3-14.4-14.2.1-33.1 2.9-40.6 6.1-2.4 1-5.9 2.2-7.8 2.5-4.3.9-12.5 4.7-20.8 9.8-3.5 2.1-6.8 3.9-7.3 3.9s-1.3.6-1.7 1.4c-.4.8-2.7 2.4-5 3.6-2.3 1.2-4.7 2.8-5.4 3.7-.7.8-3.8 3.4-6.9 5.8-6 4.6-8.6 8.4-7.7 11 .6 1.4 1.1 1.3 4.7-.5 2.3-1.1 5.1-2.9 6.3-4 5.5-4.6 21.9-15.3 29.2-18.9 4.4-2.2 13.4-6.1 19.9-8.6 10.3-4 13.8-4.9 25-6.1 15.4-1.6 40.7-1 50.5 1.3 3.6.8 9.1 2.5 12.4 3.9 3.3 1.3 6.5 2.4 7.1 2.5.6 0 3.1 1.6 5.6 3.4 2.5 1.9 6.1 4.3 8 5.4 3.1 1.7 7.9 6.6 16.3 16.6 1.4 1.7 4.6 8.4 7.2 15 2.6 6.6 5.5 13.8 6.5 16 3.3 7.4 4 11.9 4 26.2v14.2l-3.9 8.3c-4.4 9.6-7.7 12.2-14.6 11.6l-4-.3.3-4.5c.2-2.5.4-13.7.5-25 .1-23.5-.6-27.1-6.1-30.3-4.6-2.7-6.2-1.1-3.9 3.9 3 6.1 4.2 22.9 2.8 38.9-1.6 19.4-2.6 22.8-7.6 26.9-5.8 4.7-10.6 6.6-16.4 6.6-4.2 0-5.6-.5-8.2-2.8l-3.2-2.9-.1-19.9c-.1-25.5-3.1-43-7.8-45.5-4.1-2.2-4.9 2.4-2.3 12.1 2.1 7.9 3.9 29.4 3.1 37-.5 4.6-1.4 7.4-3.1 9.5-2.3 2.8-3 3-10.2 3.3-7.2.4-8.3.1-14.3-3-9.4-4.9-10.7-7.2-11.4-21.6-.4-6.4-1.3-14.2-2.1-17.2s-1.7-7.4-2-9.7c-.7-5.5-3.9-12.8-7-15.9-2-2-2.8-2.3-4.5-1.4-2.6 1.4-2.6 5.5.1 10 4 6.4 7.8 20.3 8.1 29.1.4 9.9-.5 10.9-9.9 10.9-7.7 0-11.9-1.6-18.4-7.1-5.6-4.7-7.3-7.5-8.3-13.7-1.3-8.4-6.7-17.2-15.3-24.6-9.2-8-16.5-11.9-25-13.4-3.3-.6-7.9-2-10.2-3.1-2.9-1.5-5.9-2.1-10.6-2.1-3.6 0-8.6-.5-11-1.1-6.1-1.5-13 .1-22.7 5.6-4.4 2.5-9 4.5-10.2 4.5-1.1 0-5.9-1.5-10.6-3.3-4.7-1.8-12.5-4.6-17.4-6.2-8.3-2.7-9.3-3.3-15.5-9.8-3.6-3.8-12.7-13-20.2-20.5-7.5-7.6-15.7-16.8-18.4-20.5-2.6-3.7-5.9-8-7.4-9.6-3.8-4-8.3-9.6-14-17.6-2.7-3.9-7.2-9.6-9.8-12.8-2.6-3.1-5-6.3-5.2-7-.6-1.9-19.5-29.3-25.2-36.7-3.5-4.5-4.9-7.1-4.7-9 .3-2.3.9-2.6 9.3-4.3 6.9-1.3 12.1-3.3 22.1-8.2 7.2-3.6 14.9-7.9 17-9.6 2.2-1.6 6.5-5 9.7-7.4 10.9-8.2 26.7-28.3 26.7-33.8 0-3.8-6.5-2.6-9.3 1.6-5.5 8.4-30.8 31.7-34.4 31.7-.9 0-2.4.7-3.4 1.6-2 1.8-18.7 9.6-26.4 12.3-12.2 4.4-45.5 10.1-58.6 10.1-18.1 0-44-6.9-57.4-15.2-15-9.4-19.6-12.8-25.5-18.9-8.1-8.4-11.1-12.3-13.9-17.7-1.2-2.3-2.6-4.2-3.1-4.2-.6 0-1-.4-1-.9s-1.8-3.7-4-6.9c-4.3-6.6-10-19.9-10-23.5 0-1.3-.7-4.3-1.5-6.8C78 713.4 75 692 75 681.5c0-8.8 1.3-18 4.1-29.5 3.1-12.9 7.2-26.5 8.9-29.5 3-5.4 7.4-12 8.2-12.3.4-.2 5.7-4.3 11.6-9 6-4.8 11.7-9.3 12.8-9.9 1-.7 3.6-2.4 5.7-3.8 7.3-4.8 25.8-13.4 33.5-15.5 29.3-8.1 61.9-6.3 95.7 5.2 10.5 3.6 13.2 4.9 19.7 9.4 9 6.4 12.2 3.1 4.1-4.3-2.5-2.4-4.8-4.3-5.1-4.3-.2 0-1.6-.9-3.1-1.9-1.5-1.1-5.2-3-8.2-4.1-3-1.2-6.7-2.8-8.4-3.5-5.8-2.6-17.1-5.5-29.5-7.6-14.7-2.6-44.4-3.2-52-1.2-2.5.7-10.2 2.6-17.2 4.3-12.2 2.9-19.9 6-36.6 14.9-3.5 1.9-7 4.4-7.8 5.6-.8 1.2-5.2 5.4-9.9 9.4-4.8 4.1-10.9 10.7-14.1 15.1l-5.7 7.9-3-1.3c-2.5-1-3.8-2.7-6.4-8.7-4.5-10.2-4.6-19.1-.3-30.9 4.1-11.2 6.3-14.8 17-26.5 8.2-9 14-18.1 14-21.7 0-1.4-1.9-3.8-2.9-3.8-.4 0-1.1.4-1.7.8zM1073 963.1c0 3.2-9.7 14.2-14.7 16.8-4.8 2.5-8.8-3.1-6.1-8.3 2.7-5.1 20.8-12.5 20.8-8.5zM450 628.8c0 .5 1.7 3.5 3.8 6.8 4.6 7 11.8 13.9 22.6 21.4 9.9 6.9 8.5 6.1 19.1 11.7 12.9 7 19.2 9.3 34.3 12.8 14.9 3.5 23.1 3.4 31.3-.3 2.4-1.1 5.6-2.2 7.1-2.6 3.4-.8 5.4-4.1 3.7-6.2-1.6-2-5.3-1.7-10.1.7-6.6 3.4-14.2 3.6-23.4.7-4.4-1.4-11.3-3.3-15.4-4.3-9.7-2.4-25.5-8.9-30-12.5-1.9-1.5-5.7-4-8.5-5.5-6-3.4-22.2-15.3-25-18.5-3.2-3.5-9.5-6.3-9.5-4.2zm259.3 44c-3.5.5-2.7 2 2.5 4.5 24.5 12.1 57.9 32.3 75.8 45.9 5.3 4 11.4 8.4 13.4 9.8 2.1 1.4 6.8 4.7 10.6 7.3 3.8 2.7 11.2 7.8 16.4 11.3 12.3 8.3 18.6 12.6 23.5 16.3 2.2 1.7 5.6 4 7.5 5.1 6.1 3.7 36.7 21.8 49.3 29.3 12.1 7.2 31.8 20.7 43.2 29.7 5.5 4.4 14.5 11.3 20 15.5 5.5 4.2 10.8 8.3 11.9 9.2 4.2 3.4 48.3 30.6 52.1 32.1 2.2.8 4.5 1.9 5.2 2.4 1 .8 12 7 22.9 12.8 2.8 1.6 7.4 4.4 10.3 6.4 2.8 2 5.3 3.6 5.6 3.6.3 0 .5-2.6.5-5.9 0-7 1-6.1-18.9-16.3-13.1-6.8-29.1-16.3-39.6-23.7-2.7-1.9-8.1-5-12-6.8-3.8-1.8-10.4-5.8-14.5-8.8-4.1-3-9.5-6.7-12-8.2-4.5-2.8-8.4-5.5-19.5-13.9-30.5-22.9-41.3-30.2-56.8-38.3-9.4-5-38-22.3-40.7-24.6-.8-.8-5.2-3.4-9.7-5.9-4.6-2.5-17.2-11.2-28-19.3-10.9-8.1-24-17.5-29.1-21-5.2-3.4-10.9-7.6-12.8-9.3-1.9-1.6-3.9-3-4.4-3-.5 0-3.7-2.2-7.2-4.8-7.3-5.5-11.1-7.9-22.8-14-14.6-7.7-17.2-8.9-26.5-12.7-10.8-4.5-13.3-5.2-16.2-4.7z"/><path d="M652 853.8c-7.3 3.1-8.8 5.8-3 5.5 17.6-1.2 20.3-.9 27.2 2.5 3.6 1.8 6.8 3.6 7 4 .4.9 13.4 9.5 18.4 12 2.1 1.1 5.9 3.9 8.4 6.2 6.2 5.8 13.5 11.1 20 14.5 3 1.6 6.2 3.4 7 4.1.8.6 5.8 3.3 11 6s11.8 6.2 14.5 7.9c2.8 1.7 7.2 4.4 9.9 6.1 2.7 1.6 8 5.3 11.9 8.3 3.9 2.9 9.3 6.9 12.1 8.7 2.8 1.9 7.3 5 9.9 7 2.7 1.9 5.6 3.3 6.5 3.1 1.3-.3.1-1.9-4.7-6.3-3.4-3.2-9.4-8.9-13.2-12.6-3.8-3.6-10.6-9.1-15.1-12.1-4.6-3-9.2-6.4-10.2-7.6-1.1-1.2-2.4-2.1-2.9-2.1-.6 0-1.8-.6-2.6-1.4-.9-.8-5.6-3.6-10.6-6.2-4.9-2.6-10.6-5.7-12.5-6.9-2-1.3-6.3-3.6-9.5-5.3-3.3-1.7-9.1-5.6-12.9-8.6-3.8-3.1-7.3-5.6-7.7-5.6-.5 0-1.9-1-3.1-2.3-6.5-6.2-27.1-18.3-34.6-20.2-8.2-2.2-13.8-1.8-21.2 1.3zm286.1 105.3c-4.6.4-9.7 1.3-11.4 1.8-1.6.6-4.1 1.1-5.4 1.1-2.6 0-8.1 2.5-14 6.5-4.5 3-20.1 19.2-20.8 21.6-.3.9-3 5.4-6 9.9-3.1 4.6-6.2 10.9-7.1 13.9-.9 3.1-2 6.3-2.4 7.2-.7 1.3-2.4 9.4-5.6 25.9-.4 1.9-.9 10.1-1.1 18.3l-.5 14.7H898v-6.3c0-9.1 2-25.5 3.7-30.7 2.1-6.2 2-9.4-.6-12.1-2.3-2.5-2.5-3.3-2.2-9.5.3-4.6-1.7-7.4-5.2-7.4-3.1.1-8.9 5.2-10.3 9.1-1.6 4.5-1.8 1.3-.3-6.7 1.2-6.5 4.7-12.8 10.9-19.3 2.2-2.3 4-4.6 4-5 0-.5 1.8-2.1 4-3.6s4-3.3 4-4c0-.7 1.5-2.5 3.3-3.9 1.7-1.4 3.9-3.3 4.8-4.2 3-2.8 17.5-6.1 37.4-8.4 6.1-.7 24.5.2 30 1.5 16.1 3.8 25.8 9.2 38 21.3 10.4 10.2 14.2 16 19.6 29.7 1.5 3.9 3.7 13.1 4.9 20.5.7 4.1 1.8 9.9 2.6 12.9.7 2.9 1.7 10 2 15.7l.7 10.4h10.5l-.5-4.8c-2.1-21.3-8.4-53.1-11.8-59.4-.8-1.4-1.5-3.4-1.5-4.3 0-.9-1.3-3.6-3-6-1.6-2.4-3-4.9-3-5.5 0-4-19.1-23.8-27.2-28.3-2.5-1.4-6.3-3.6-8.5-4.9-12.1-7.4-37.9-10.4-66.2-7.7z"/><path d="M908.6 1068.2c-1.3 1.8-3.1 5.2-3.9 7.5l-1.5 4.3h6.8c7.5 0 8-.4 8-6.9 0-3.9-2.8-8.1-5.5-8.1-.8 0-2.5 1.5-3.9 3.2zM0 1073.5c0 6.4.1 6.5 15.5 6.5h11l-8.5-3.5c-4.7-1.9-10.6-4.6-13.2-5.9l-4.8-2.3v5.2z"/></svg>