<?xml version="1.0" standalone="no"?>
<!DOCTYPE svg PUBLIC "-//W3C//DTD SVG 20010904//EN"
 "http://www.w3.org/TR/2001/REC-SVG-20010904/DTD/svg10.dtd">
<svg version="1.0" xmlns="http://www.w3.org/2000/svg"
 width="338.000000pt" height="338.000000pt" viewBox="0 0 338.000000 338.000000"
 preserveAspectRatio="xMidYMid meet">
<metadata>
Created by potrace 1.14, written by Peter Selinger 2001-2017
</metadata>
<g transform="translate(0.000000,338.000000) scale(0.100000,-0.100000)"
fill="#000000" stroke="none">
<path d="M992 3138 c-7 -7 -12 -15 -12 -19 0 -5 38 -74 85 -154 47 -81 85
-149 85 -152 0 -3 -14 -21 -30 -40 -40 -46 -75 -116 -95 -193 -13 -51 -16
-102 -13 -254 3 -187 4 -192 30 -237 81 -137 258 -211 543 -225 331 -17 594
73 675 232 24 48 25 54 24 259 0 189 -2 216 -21 267 -18 47 -66 130 -107 183
-5 7 23 66 79 164 81 139 87 153 72 168 -8 9 -22 13 -30 10 -8 -3 -49 -65 -92
-139 -42 -73 -80 -136 -84 -140 -4 -4 -41 9 -83 30 -108 55 -214 76 -373 75
-153 0 -269 -24 -367 -75 -35 -18 -66 -34 -70 -36 -3 -2 -45 62 -92 142 -48
80 -92 146 -99 146 -7 0 -18 -5 -25 -12z m910 -261 c141 -45 225 -116 282
-236 31 -66 31 -66 34 -260 2 -107 1 -210 -3 -229 -8 -43 -82 -118 -149 -151
-100 -49 -179 -63 -372 -68 -318 -9 -485 39 -582 166 l-33 44 3 221 3 222 32
65 c61 123 179 207 339 243 51 12 109 15 219 12 127 -3 162 -7 227 -29z"/>
<path d="M1320 2593 c-64 -23 -142 -105 -165 -172 -20 -62 -16 -140 10 -192
24 -47 82 -107 130 -132 39 -21 51 -22 355 -22 l315 0 47 27 c86 51 148 151
148 239 0 102 -91 224 -190 253 -78 23 -584 22 -650 -1z m668 -71 c27 -14 54
-41 73 -69 25 -40 29 -57 29 -112 0 -104 -52 -174 -149 -201 -20 -5 -153 -10
-297 -10 -301 0 -332 6 -389 72 -43 51 -62 125 -46 183 14 53 44 100 76 121
62 41 89 44 380 41 271 -2 281 -3 323 -25z"/>
<path d="M1357 2419 c-11 -6 -25 -26 -33 -45 -20 -47 1 -97 50 -121 34 -16 38
-16 72 0 49 24 70 74 50 121 -8 19 -23 39 -34 45 -26 14 -81 14 -105 0z m78
-79 c0 -18 -6 -26 -23 -28 -24 -4 -38 18 -28 44 3 9 15 14 28 12 17 -2 23 -10
23 -28z"/>
<path d="M1821 2406 c-33 -35 -38 -85 -11 -119 31 -39 65 -50 106 -37 43 15
64 45 64 93 0 54 -35 87 -93 87 -33 0 -49 -6 -66 -24z m94 -56 c8 -26 -1 -40
-26 -40 -22 0 -34 22 -25 45 8 22 44 18 51 -5z"/>
<path d="M140 1448 c0 -2 29 -91 64 -198 l63 -195 37 112 37 112 -27 86 -28
85 -73 0 c-40 0 -73 -1 -73 -2z"/>
<path d="M425 1243 c-36 -114 -72 -227 -80 -250 l-14 -43 62 0 63 0 49 151 50
151 26 -83 27 -82 32 99 32 99 -24 80 -24 80 -67 3 -66 3 -66 -208z"/>
<path d="M820 1426 c-15 -42 -150 -461 -150 -469 0 -4 29 -7 64 -7 l64 0 81
243 c45 133 81 245 81 250 0 4 -29 7 -65 7 -60 0 -66 -2 -75 -24z"/>
<path d="M1081 1375 c29 -41 56 -75 60 -75 3 0 24 21 44 46 37 45 38 47 22 73
-15 24 -21 26 -97 29 l-82 3 53 -76z"/>
<path d="M1362 1413 c-57 -74 -332 -452 -332 -458 0 -3 35 -5 78 -5 l77 0 169
239 c94 130 172 243 174 249 2 8 -17 12 -66 12 -69 0 -71 -1 -100 -37z"/>
<path d="M1592 1428 c8 -13 51 -84 96 -159 l82 -137 0 -91 0 -91 70 0 70 0 0
88 0 87 95 160 95 160 -56 3 c-31 2 -63 1 -70 -2 -7 -3 -38 -48 -70 -101 l-57
-96 -60 101 -59 100 -75 0 -75 0 14 -22z"/>
<path d="M2210 1395 l0 -55 113 0 c61 0 130 -5 152 -10 81 -18 125 -112 88
-187 -30 -60 -63 -78 -146 -78 l-72 0 -3 63 -3 62 -64 0 -65 0 0 -121 0 -121
163 4 c158 3 163 4 217 33 100 54 149 167 120 276 -37 140 -133 189 -372 189
l-128 0 0 -55z"/>
<path d="M2860 1395 l0 -55 201 0 200 0 -3 53 -3 52 -197 3 -198 2 0 -55z"/>
<path d="M2860 1200 l0 -50 200 0 200 0 0 50 0 50 -200 0 -200 0 0 -50z"/>
<path d="M1399 1068 c-18 -24 -37 -48 -41 -54 -6 -8 0 -22 14 -38 22 -25 27
-27 100 -24 l76 3 -55 75 c-30 41 -56 76 -58 78 -1 2 -17 -16 -36 -40z"/>
<path d="M2860 1005 l0 -55 201 0 200 0 -3 53 -3 52 -197 3 -198 2 0 -55z"/>
<path d="M1578 897 c-71 -20 -124 -60 -158 -120 -26 -45 -30 -62 -30 -127 0
-65 4 -82 31 -128 117 -205 462 -156 509 73 15 74 -1 151 -44 208 -63 83 -199
124 -308 94z m167 -138 c101 -89 45 -249 -88 -249 -44 0 -54 4 -88 39 -37 37
-39 42 -39 101 0 59 2 64 39 101 35 35 44 39 89 39 43 0 57 -5 87 -31z"/>
<path d="M930 845 l0 -55 90 0 90 0 0 -120 c0 -115 -1 -122 -25 -145 -13 -14
-32 -25 -42 -25 -19 0 -62 25 -76 44 -4 7 -22 -6 -47 -34 l-40 -45 32 -27 c62
-54 191 -61 260 -15 61 41 68 69 68 285 l0 192 -155 0 -155 0 0 -55z"/>
<path d="M2010 879 c6 -11 49 -83 96 -160 l84 -140 0 -90 0 -89 70 0 70 0 0
94 0 95 90 149 c50 83 90 153 90 156 0 3 -29 6 -64 6 l-64 0 -60 -101 -60
-101 -58 101 -59 101 -73 0 c-70 0 -72 -1 -62 -21z"/>
</g>
</svg>
