<?xml version="1.0" standalone="no"?>
<!DOCTYPE svg PUBLIC "-//W3C//DTD SVG 20010904//EN"
 "http://www.w3.org/TR/2001/REC-SVG-20010904/DTD/svg10.dtd">
<svg version="1.0" xmlns="http://www.w3.org/2000/svg"
 width="1080.000000pt" height="1080.000000pt" viewBox="0 0 1080.000000 1080.000000"
 preserveAspectRatio="xMidYMid meet">
<metadata>
Created by potrace 1.14, written by Peter Selinger 2001-2017
</metadata>
<g transform="translate(0.000000,1080.000000) scale(0.100000,-0.100000)"
fill="#000000" stroke="none">
<path d="M4040 9845 c-93 -27 -226 -88 -258 -119 -40 -37 -72 -95 -72 -130 0
-25 -32 -56 -58 -56 -28 0 -149 -54 -202 -91 -30 -20 -66 -52 -80 -70 -14 -17
-33 -40 -43 -51 -9 -10 -29 -44 -42 -75 -34 -76 -39 -215 -9 -261 24 -38 92
-112 102 -112 4 0 13 -9 20 -20 10 -17 10 -24 -3 -44 -9 -13 -22 -54 -30 -91
-22 -106 1 -195 65 -248 42 -36 155 -88 173 -81 27 10 59 -14 52 -39 -9 -29
-32 -83 -54 -127 -10 -19 -24 -53 -31 -75 -7 -22 -30 -78 -52 -125 -49 -105
-77 -190 -118 -356 -17 -71 -35 -145 -40 -164 -25 -99 -18 -439 10 -502 9 -18
8 -40 -4 -92 -38 -164 -4 -469 70 -623 23 -47 48 -83 74 -104 55 -45 90 -98
90 -140 0 -101 139 -351 261 -469 116 -112 116 -112 140 -99 20 10 25 9 41
-11 10 -12 21 -34 25 -49 8 -32 75 -159 112 -211 14 -21 46 -66 70 -101 24
-35 67 -93 96 -129 64 -79 322 -328 364 -349 16 -9 67 -41 113 -72 113 -76
235 -139 418 -214 153 -63 419 -150 520 -170 47 -9 128 -25 180 -36 127 -25
468 -35 650 -20 177 15 348 45 440 76 78 26 239 104 325 157 119 72 309 247
383 353 19 28 45 64 58 80 23 32 94 167 94 181 0 4 9 26 19 48 55 114 96 348
111 621 4 89 28 302 54 480 60 419 76 509 120 665 15 52 36 137 46 188 11 51
24 102 30 112 16 29 12 125 -10 240 -11 58 -27 151 -35 206 -8 56 -17 108 -20
115 -3 8 -11 48 -19 89 -26 141 -56 230 -111 328 -29 53 -64 116 -77 139 -118
212 -263 418 -327 464 -10 8 -61 53 -114 100 -208 188 -499 394 -647 458 -30
13 -86 39 -125 57 -38 18 -101 42 -140 54 -115 36 -156 50 -204 69 -25 10 -64
23 -86 29 -22 6 -85 26 -140 43 -98 32 -105 32 -329 37 -168 3 -280 0 -417
-13 -201 -18 -231 -15 -291 26 -14 11 -29 19 -33 19 -4 0 -19 8 -33 19 -30 21
-130 52 -238 75 -40 9 -145 45 -235 82 -252 103 -311 125 -354 134 -59 13
-193 10 -245 -5z m1436 -1925 c26 -10 26 -11 9 -30 -16 -17 -65 -49 -154 -100
-15 -8 -62 -44 -104 -79 -129 -107 -123 -131 67 -274 16 -12 43 -34 60 -48 17
-14 47 -34 66 -44 19 -9 53 -31 75 -47 34 -25 287 -190 387 -253 17 -11 33
-26 36 -32 4 -15 -36 -17 -70 -4 -13 5 -97 33 -188 61 -91 29 -178 58 -195 65
-52 23 -178 55 -217 55 -20 0 -40 -5 -44 -12 -10 -16 30 -46 79 -59 23 -6 74
-22 112 -36 39 -14 129 -43 200 -66 72 -23 135 -46 142 -50 8 -5 10 -24 6 -57
-5 -40 -1 -59 24 -112 35 -75 63 -93 160 -103 53 -6 68 -4 115 17 44 20 57 33
73 67 18 41 20 42 54 36 20 -4 59 -17 86 -29 28 -13 90 -35 139 -51 109 -34
119 -31 183 63 71 104 66 117 -106 252 -120 95 -201 160 -246 200 -82 73 -303
296 -326 330 -13 19 -38 47 -56 63 -17 15 -45 48 -61 73 -17 24 -51 67 -76 95
-51 56 -53 61 -31 79 18 15 134 7 233 -16 35 -7 78 -14 97 -14 19 0 45 -4 58
-9 13 -5 89 -23 169 -40 80 -17 207 -52 284 -77 76 -25 216 -70 309 -99 244
-77 557 -183 577 -195 10 -5 73 -32 140 -59 68 -27 152 -63 187 -81 35 -18
100 -47 145 -65 44 -18 82 -39 84 -47 3 -15 -87 -60 -223 -114 -38 -15 -86
-37 -105 -49 -19 -12 -46 -26 -60 -30 -14 -4 -51 -21 -83 -37 -32 -16 -95 -43
-140 -59 -45 -17 -86 -34 -92 -38 -5 -5 -44 -21 -85 -35 -41 -15 -78 -33 -82
-39 -12 -18 -9 -105 4 -149 12 -41 42 -77 80 -95 13 -6 79 -23 147 -39 68 -16
130 -35 138 -42 8 -8 11 -23 7 -37 -8 -34 30 -110 73 -142 29 -23 45 -27 104
-27 68 -1 71 0 102 35 18 19 40 50 49 68 18 32 18 32 87 30 76 -4 101 8 101
47 0 19 -7 24 -37 29 -21 3 -58 11 -83 16 -25 6 -85 17 -135 25 -283 45 -314
51 -369 73 -16 7 -25 15 -20 19 11 10 314 83 464 112 123 25 208 53 268 89
l44 26 -6 60 c-5 59 -37 183 -56 217 -26 47 4 50 78 8 44 -26 52 -35 52 -59 0
-41 -20 -129 -38 -171 -8 -19 -17 -51 -19 -70 -2 -19 -10 -52 -18 -73 -18 -44
-53 -268 -66 -412 -5 -55 -13 -120 -18 -145 -23 -106 -23 -106 -71 -653 -5
-66 -12 -122 -14 -126 -3 -4 -10 -41 -15 -82 -25 -183 -111 -410 -199 -526
-95 -125 -117 -149 -195 -213 -43 -36 -89 -75 -101 -88 -36 -34 -89 -68 -217
-137 -96 -52 -140 -69 -241 -93 -340 -82 -706 -112 -879 -73 -24 6 -98 19
-164 31 -220 38 -300 59 -470 123 -22 8 -98 37 -170 63 -71 26 -135 51 -141
56 -6 4 -47 26 -90 47 -89 43 -287 172 -380 247 -34 27 -74 58 -89 69 -43 31
-98 78 -118 100 -52 60 -84 101 -163 210 -47 66 -93 133 -103 149 -9 16 -30
49 -47 75 -88 133 -120 215 -178 465 -9 39 -25 79 -36 91 -24 26 -25 52 -3 77
15 17 15 19 -2 38 -9 10 -38 27 -64 36 -211 78 -326 178 -390 342 -56 141 -71
335 -37 472 25 103 86 221 152 294 43 47 72 68 127 93 65 29 82 32 168 33 69
0 111 -5 150 -19 122 -43 153 -63 239 -151 114 -117 126 -123 273 -124 l119
-1 33 40 c19 21 36 55 40 75 3 19 13 58 21 85 7 28 25 100 39 160 22 96 58
215 139 465 l22 65 59 8 c192 26 406 34 451 17z"/>
<path d="M5099 6943 c-23 -27 -17 -194 9 -277 34 -107 94 -207 154 -257 29
-24 68 -58 88 -76 42 -37 168 -105 225 -121 294 -82 556 -39 706 116 115 119
131 142 124 170 -12 49 -49 54 -160 22 -92 -26 -163 -25 -337 5 -216 37 -212
35 -483 190 -61 35 -164 133 -202 192 -31 49 -37 53 -72 53 -24 0 -44 -6 -52
-17z"/>
<path d="M3781 6912 c-14 -27 13 -62 47 -62 33 0 66 -22 119 -78 43 -45 66
-48 77 -9 14 54 -118 167 -196 167 -26 0 -40 -6 -47 -18z"/>
<path d="M7086 6297 c-9 -36 11 -135 33 -170 11 -18 29 -48 40 -68 21 -38 40
-57 129 -132 115 -96 254 -142 384 -126 135 16 184 54 242 185 23 50 25 65 16
88 -10 27 -13 28 -48 20 -20 -5 -95 -8 -167 -8 -220 3 -374 59 -534 196 -51
44 -86 49 -95 15z"/>
<path d="M6931 5890 c-12 -17 -40 -38 -62 -46 -41 -17 -51 -42 -24 -64 22 -18
78 4 115 46 30 35 35 50 24 78 -9 24 -28 19 -53 -14z"/>
<path d="M6003 4799 c-59 -17 -34 -69 32 -69 29 0 125 38 125 50 0 25 -95 37
-157 19z"/>
<path d="M2845 6786 c-119 -42 -376 -52 -584 -23 -188 27 -265 15 -601 -95
-36 -11 -79 -31 -97 -44 -17 -13 -34 -24 -38 -24 -8 0 -103 -75 -150 -120 -90
-84 -185 -196 -185 -218 0 -5 -14 -34 -30 -64 -35 -65 -75 -174 -97 -268 -26
-114 -27 -119 -9 -126 22 -8 40 15 67 86 11 30 54 123 95 205 63 128 85 162
150 233 160 173 304 250 567 302 110 22 345 27 410 9 45 -12 208 1 386 32 75
12 165 19 265 20 173 1 200 6 204 37 4 27 -17 36 -118 51 -142 20 -193 22
-235 7z"/>
<path d="M1870 5941 c0 -18 42 -61 86 -85 63 -35 129 -46 359 -56 236 -11 388
-31 545 -71 63 -16 121 -29 128 -29 21 0 282 -99 320 -121 18 -10 37 -19 42
-19 5 0 46 -23 92 -51 46 -29 99 -61 118 -72 93 -54 149 -97 230 -176 48 -47
98 -95 109 -106 12 -11 111 -111 221 -222 132 -135 205 -203 219 -203 29 0 26
18 -14 70 -19 25 -51 70 -72 100 -21 30 -98 117 -173 193 -74 75 -138 144
-143 152 -5 10 -2 26 9 45 17 28 17 30 -1 50 -24 27 -41 25 -61 -5 -23 -35
-45 -31 -100 18 -257 225 -368 297 -591 381 -278 105 -494 144 -873 156 -256
8 -280 11 -349 34 -79 28 -101 31 -101 17z"/>
<path d="M984 5552 c-7 -4 -28 -27 -49 -52 -21 -25 -68 -78 -106 -117 -104
-112 -152 -181 -186 -268 -60 -156 -66 -237 -28 -369 29 -99 43 -125 97 -179
22 -22 38 -47 38 -61 0 -13 -15 -68 -34 -122 -23 -66 -36 -126 -40 -180 -6
-99 -18 -131 -52 -144 -14 -6 -40 -21 -58 -35 -18 -14 -36 -25 -40 -25 -6 0
-120 -74 -186 -120 -78 -56 -158 -135 -240 -235 -96 -117 -100 -125 -100 -202
l0 -67 29 45 c136 204 287 364 436 463 50 33 109 75 132 93 31 25 44 30 50 21
4 -7 11 -62 14 -123 3 -60 11 -145 18 -187 15 -97 75 -310 102 -363 12 -22 29
-56 39 -75 18 -33 80 -122 180 -257 25 -34 64 -73 88 -88 23 -16 42 -31 42
-34 0 -4 35 -30 78 -59 42 -29 100 -68 127 -88 73 -53 136 -79 265 -112 249
-64 320 -69 602 -42 130 13 138 13 158 -5 11 -10 20 -23 20 -29 0 -6 16 -31
35 -55 19 -24 35 -47 35 -51 0 -5 15 -26 33 -48 17 -22 48 -63 67 -91 19 -28
48 -68 63 -89 16 -20 35 -50 43 -67 23 -52 209 -305 281 -385 23 -25 58 -70
79 -100 67 -99 97 -133 235 -270 75 -74 163 -165 195 -203 55 -61 70 -72 163
-112 57 -25 134 -54 172 -65 37 -11 70 -24 73 -29 3 -4 -10 -40 -30 -79 -64
-133 -76 -172 -81 -272 -7 -119 18 -298 54 -395 28 -76 85 -141 172 -197 l45
-28 1581 0 1582 0 11 63 c6 34 18 100 27 147 40 218 49 461 22 599 -19 99 -15
117 25 107 78 -18 635 112 771 181 58 29 58 -11 0 -87 -128 -169 -218 -382
-242 -572 -16 -120 -31 -288 -34 -366 l-3 -72 43 0 c40 0 43 2 44 28 2 93 11
203 19 242 5 25 14 83 20 130 6 47 17 105 24 130 8 25 22 74 32 110 24 87 91
232 147 316 62 94 106 154 123 171 8 8 18 22 24 32 5 10 53 44 107 76 54 32
118 71 143 86 43 26 153 80 230 112 135 58 511 89 681 57 63 -12 101 -29 67
-30 -7 -1 -49 -7 -93 -16 -44 -8 -111 -18 -150 -23 -42 -5 -98 -21 -140 -41
-155 -71 -273 -136 -325 -179 -30 -25 -63 -53 -73 -61 -39 -30 -178 -213 -209
-273 -47 -93 -97 -239 -124 -362 -13 -60 -28 -123 -34 -140 -17 -53 -38 -248
-32 -307 l4 -58 49 0 49 0 0 124 c0 115 10 190 51 381 12 58 70 207 105 268
13 23 33 60 45 82 28 52 71 113 101 145 118 123 302 258 354 259 11 1 24 5 30
9 13 12 117 47 199 67 100 24 422 25 558 2 88 -15 188 -43 235 -66 149 -70
157 -76 309 -228 84 -84 153 -157 153 -163 0 -6 14 -32 31 -57 19 -27 37 -72
45 -107 7 -34 19 -90 28 -126 8 -36 17 -85 21 -110 4 -24 8 -47 10 -51 7 -10
45 -341 45 -386 l0 -43 50 0 50 0 -1 438 c-1 240 -3 428 -6 417 -15 -71 -9
-66 -70 -63 -44 2 -58 7 -67 23 -6 11 -19 32 -28 47 -20 30 -24 78 -6 78 6 0
49 39 95 87 l83 88 0 82 c0 95 2 94 -99 68 -71 -18 -152 -57 -209 -101 -25
-19 -52 -34 -61 -34 -9 0 -48 28 -88 63 -72 63 -175 120 -348 193 -49 21 -102
46 -116 55 -98 67 -494 159 -680 159 -95 0 -329 -22 -406 -38 -67 -14 -241
-92 -338 -152 -49 -30 -97 -59 -107 -65 -86 -52 -146 -91 -164 -106 -11 -11
-54 -28 -95 -40 -41 -11 -135 -40 -209 -64 -74 -24 -179 -52 -232 -64 -295
-64 -306 -65 -360 -62 -16 1 -224 235 -261 294 -19 30 -157 188 -194 222 -21
20 -71 80 -208 250 -38 48 -93 113 -122 144 -28 31 -82 91 -120 135 -37 43
-109 124 -159 180 -50 55 -114 130 -144 166 -66 81 -190 211 -255 268 -60 52
-545 296 -700 352 -27 10 -115 44 -195 75 -80 31 -174 65 -210 75 -36 9 -94
28 -130 42 -36 14 -88 34 -117 44 -60 20 -123 79 -228 214 -28 36 -68 83 -89
105 l-38 40 6 -30 c4 -16 16 -41 26 -55 11 -14 32 -45 47 -70 14 -25 35 -55
46 -67 26 -29 19 -59 -13 -55 -14 2 -30 8 -35 12 -15 12 -248 87 -329 105 -38
9 -88 27 -111 41 -23 13 -73 35 -111 48 -38 14 -104 40 -147 58 l-79 33 -3
195 c-3 192 -16 286 -64 477 -45 178 -255 473 -337 473 -32 0 -30 -14 10 -69
198 -272 242 -384 282 -717 17 -135 24 -234 20 -258 l-7 -38 -40 7 c-23 4 -53
13 -67 21 -15 8 -34 14 -42 14 -8 0 -28 8 -45 18 -16 10 -59 26 -95 36 -36 10
-87 29 -113 43 -60 30 -120 29 -125 -2 -5 -34 56 -82 138 -110 41 -14 94 -35
117 -45 23 -11 86 -34 140 -51 146 -46 179 -58 278 -104 50 -23 137 -59 195
-78 106 -37 263 -92 400 -141 41 -15 114 -41 163 -57 48 -16 102 -38 120 -49
17 -10 65 -26 105 -34 40 -8 87 -22 104 -31 17 -8 35 -15 40 -15 13 0 276 -95
433 -157 174 -69 355 -149 430 -191 11 -6 81 -40 155 -75 l135 -64 115 -128
c63 -71 126 -142 140 -158 14 -16 80 -86 148 -156 68 -69 130 -138 138 -153 8
-15 20 -31 27 -35 7 -4 27 -28 45 -53 18 -24 52 -67 76 -95 25 -27 79 -90 121
-140 43 -49 89 -103 102 -119 14 -15 35 -43 48 -62 13 -19 37 -49 55 -66 31
-33 258 -291 295 -337 11 -13 39 -45 62 -70 24 -25 43 -51 43 -57 0 -18 -11
-23 -29 -14 -9 4 -51 23 -95 41 -66 27 -85 41 -118 83 -37 48 -158 185 -223
251 -64 65 -157 180 -176 217 -11 21 -23 38 -28 38 -4 0 -19 15 -32 34 -26 37
-99 121 -194 225 -34 36 -75 87 -93 113 -18 26 -40 53 -50 60 -10 7 -27 25
-38 39 -20 27 -160 182 -224 250 -19 20 -66 74 -105 119 -38 45 -81 90 -95 98
-14 9 -43 31 -65 49 -50 41 -207 118 -300 148 -39 12 -79 27 -90 33 -47 27
-236 92 -308 107 -43 8 -124 35 -180 58 -56 24 -122 49 -147 57 -25 7 -49 17
-55 21 -14 10 -201 81 -380 145 -82 29 -175 62 -205 73 -30 11 -109 36 -175
57 -66 21 -129 43 -140 49 -11 7 -47 20 -80 29 -33 10 -87 26 -120 37 -33 11
-85 27 -115 35 -30 8 -89 28 -131 44 -42 16 -109 36 -150 45 -41 9 -109 28
-151 43 -64 21 -81 24 -103 14 -27 -12 -33 -39 -12 -63 21 -25 239 -99 295
-99 9 0 55 -16 102 -36 47 -20 110 -42 140 -49 61 -15 192 -58 320 -105 47
-17 114 -41 150 -52 36 -11 99 -31 140 -44 41 -14 112 -34 157 -45 141 -33
340 -103 426 -150 21 -11 84 -36 140 -55 56 -19 111 -38 122 -44 11 -5 42 -18
68 -30 56 -24 129 -88 162 -141 36 -56 101 -127 160 -176 30 -24 55 -50 55
-57 0 -7 15 -33 33 -57 19 -24 41 -57 50 -74 9 -16 26 -41 39 -55 13 -14 44
-52 70 -85 25 -33 71 -85 102 -115 31 -30 56 -58 56 -62 0 -5 16 -31 35 -59
20 -27 40 -62 46 -76 13 -34 66 -101 91 -114 24 -13 48 4 48 34 0 11 -34 78
-76 148 -66 110 -92 142 -198 245 -66 66 -134 137 -150 159 -16 22 -55 67 -87
101 -31 33 -64 77 -73 98 -9 21 -38 64 -66 96 -27 32 -50 65 -50 74 0 19 27
21 67 5 74 -31 95 -38 193 -68 58 -18 132 -46 165 -61 33 -16 70 -32 83 -35
23 -7 229 -249 307 -361 53 -77 215 -266 330 -385 111 -115 205 -226 225 -265
26 -50 165 -216 259 -309 96 -95 137 -148 126 -165 -3 -5 -28 -10 -54 -10 -31
0 -65 -9 -97 -25 -89 -45 -109 -35 -157 85 -56 141 -85 196 -123 231 -19 19
-41 46 -49 61 -18 32 -171 148 -196 148 -10 0 -33 13 -51 29 -111 96 -302 145
-563 144 -142 -1 -331 -29 -406 -61 -24 -10 -59 -22 -78 -25 -43 -9 -125 -47
-208 -98 -35 -21 -68 -39 -73 -39 -5 0 -13 -6 -17 -14 -4 -8 -27 -24 -50 -36
-23 -12 -47 -28 -54 -37 -7 -8 -38 -34 -69 -58 -60 -46 -86 -84 -77 -110 6
-14 11 -13 47 5 23 11 51 29 63 40 55 46 219 153 292 189 44 22 134 61 199 86
103 40 138 49 250 61 154 16 407 10 505 -13 36 -8 91 -25 124 -39 33 -13 65
-24 71 -25 6 0 31 -16 56 -34 25 -19 61 -43 80 -54 31 -17 79 -66 163 -166 14
-17 46 -84 72 -150 26 -66 55 -138 65 -160 33 -74 40 -119 40 -262 l0 -142
-39 -83 c-44 -96 -77 -122 -146 -116 l-40 3 3 45 c2 25 4 137 5 250 1 235 -6
271 -61 303 -46 27 -62 11 -39 -39 30 -61 42 -229 28 -389 -16 -194 -26 -228
-76 -269 -58 -47 -106 -66 -164 -66 -42 0 -56 5 -82 28 l-32 29 -1 199 c-1
255 -31 430 -78 455 -41 22 -49 -24 -23 -121 21 -79 39 -294 31 -370 -5 -46
-14 -74 -31 -95 -23 -28 -30 -30 -102 -33 -72 -4 -83 -1 -143 30 -94 49 -107
72 -114 216 -4 64 -13 142 -21 172 -8 30 -17 74 -20 97 -7 55 -39 128 -70 159
-20 20 -28 23 -45 14 -26 -14 -26 -55 1 -100 40 -64 78 -203 81 -291 4 -99 -5
-109 -99 -109 -77 0 -119 16 -184 71 -56 47 -73 75 -83 137 -13 84 -67 172
-153 246 -92 80 -165 119 -250 134 -33 6 -79 20 -102 31 -29 15 -59 21 -106
21 -36 0 -86 5 -110 11 -61 15 -130 -1 -227 -56 -44 -25 -90 -45 -102 -45 -11
0 -59 15 -106 33 -47 18 -125 46 -174 62 -83 27 -93 33 -155 98 -36 38 -127
130 -202 205 -75 76 -157 168 -184 205 -26 37 -59 80 -74 96 -38 40 -83 96
-140 176 -27 39 -72 96 -98 128 -26 31 -50 63 -52 70 -6 19 -195 293 -252 367
-35 45 -49 71 -47 90 3 23 9 26 93 43 69 13 121 33 221 82 72 36 149 79 170
96 22 16 65 50 97 74 109 82 267 283 267 338 0 38 -65 26 -93 -16 -55 -84
-308 -317 -344 -317 -9 0 -24 -7 -34 -16 -20 -18 -187 -96 -264 -123 -122 -44
-455 -101 -586 -101 -181 0 -440 69 -574 152 -150 94 -196 128 -255 189 -81
84 -111 123 -139 177 -12 23 -26 42 -31 42 -6 0 -10 4 -10 9 0 5 -18 37 -40
69 -43 66 -100 199 -100 235 0 13 -7 43 -15 68 -25 75 -55 289 -55 394 0 88
13 180 41 295 31 129 72 265 89 295 30 54 74 120 82 123 4 2 57 43 116 90 60
48 117 93 128 99 10 7 36 24 57 38 73 48 258 134 335 155 293 81 619 63 957
-52 105 -36 132 -49 197 -94 90 -64 122 -31 41 43 -25 24 -48 43 -51 43 -2 0
-16 9 -31 19 -15 11 -52 30 -82 41 -30 12 -67 28 -84 35 -58 26 -171 55 -295
76 -147 26 -444 32 -520 12 -25 -7 -102 -26 -172 -43 -122 -29 -199 -60 -366
-149 -35 -19 -70 -44 -78 -56 -8 -12 -52 -54 -99 -94 -48 -41 -109 -107 -141
-151 l-57 -79 -30 13 c-25 10 -38 27 -64 87 -45 102 -46 191 -3 309 41 112 63
148 170 265 82 90 140 181 140 217 0 14 -19 38 -29 38 -4 0 -11 -4 -17 -8z
m9746 -4383 c0 -32 -97 -142 -147 -168 -48 -25 -88 31 -61 83 27 51 208 125
208 85z"/>
<path d="M4500 4512 c0 -5 17 -35 38 -68 46 -70 118 -139 226 -214 99 -69 85
-61 191 -117 129 -70 192 -93 343 -128 149 -35 231 -34 313 3 24 11 56 22 71
26 34 8 54 41 37 62 -16 20 -53 17 -101 -7 -66 -34 -142 -36 -234 -7 -44 14
-113 33 -154 43 -97 24 -255 89 -300 125 -19 15 -57 40 -85 55 -60 34 -222
153 -250 185 -32 35 -95 63 -95 42z"/>
<path d="M7093 4072 c-35 -5 -27 -20 25 -45 245 -121 579 -323 758 -459 53
-40 114 -84 134 -98 21 -14 68 -47 106 -73 38 -27 112 -78 164 -113 123 -83
186 -126 235 -163 22 -17 56 -40 75 -51 61 -37 367 -218 493 -293 121 -72 318
-207 432 -297 55 -44 145 -113 200 -155 55 -42 108 -83 119 -92 42 -34 483
-306 521 -321 22 -8 45 -19 52 -24 10 -8 120 -70 229 -128 28 -16 74 -44 103
-64 28 -20 53 -36 56 -36 3 0 5 26 5 59 0 70 10 61 -189 163 -131 68 -291 163
-396 237 -27 19 -81 50 -120 68 -38 18 -104 58 -145 88 -41 30 -95 67 -120 82
-45 28 -84 55 -195 139 -305 229 -413 302 -568 383 -94 50 -380 223 -407 246
-8 8 -52 34 -97 59 -46 25 -172 112 -280 193 -109 81 -240 175 -291 210 -52
34 -109 76 -128 93 -19 16 -39 30 -44 30 -5 0 -37 22 -72 48 -73 55 -111 79
-228 140 -146 77 -172 89 -265 127 -108 45 -133 52 -162 47z"/>
<path d="M6520 2262 c-73 -31 -88 -58 -30 -55 176 12 203 9 272 -25 36 -18 68
-36 70 -40 4 -9 134 -95 184 -120 21 -11 59 -39 84 -62 62 -58 135 -111 200
-145 30 -16 62 -34 70 -41 8 -6 58 -33 110 -60 52 -27 118 -62 145 -79 28 -17
72 -44 99 -61 27 -16 80 -53 119 -83 39 -29 93 -69 121 -87 28 -19 73 -50 99
-70 27 -19 56 -33 65 -31 13 3 1 19 -47 63 -34 32 -94 89 -132 126 -38 36
-106 91 -151 121 -46 30 -92 64 -102 76 -11 12 -24 21 -29 21 -6 0 -18 6 -26
14 -9 8 -56 36 -106 62 -49 26 -106 57 -125 69 -20 13 -63 36 -95 53 -33 17
-91 56 -129 86 -38 31 -73 56 -77 56 -5 0 -19 10 -31 23 -65 62 -271 183 -346
202 -82 22 -138 18 -212 -13z"/>
<path d="M9381 1209 c-46 -4 -97 -13 -114 -18 -16 -6 -41 -11 -54 -11 -26 0
-81 -25 -140 -65 -45 -30 -201 -192 -208 -216 -3 -9 -30 -54 -60 -99 -31 -46
-62 -109 -71 -139 -9 -31 -20 -63 -24 -72 -7 -13 -24 -94 -56 -259 -4 -19 -9
-101 -11 -183 l-5 -147 171 0 171 0 0 63 c0 91 20 255 37 307 21 62 20 94 -6
121 -23 25 -25 33 -22 95 3 46 -17 74 -52 74 -31 -1 -89 -52 -103 -91 -16 -45
-18 -13 -3 67 12 65 47 128 109 193 22 23 40 46 40 50 0 5 18 21 40 36 22 15
40 33 40 40 0 7 15 25 33 39 17 14 39 33 48 42 30 28 175 61 374 84 61 7 245
-2 300 -15 161 -38 258 -92 380 -213 104 -102 142 -160 196 -297 15 -39 37
-131 49 -205 7 -41 18 -99 26 -129 7 -29 17 -100 20 -157 l7 -104 52 0 53 0
-5 48 c-21 213 -84 531 -118 594 -8 14 -15 34 -15 43 0 9 -13 36 -30 60 -16
24 -30 49 -30 55 0 40 -191 238 -272 283 -25 14 -63 36 -85 49 -121 74 -379
104 -662 77z"/>
<path d="M9086 118 c-13 -18 -31 -52 -39 -75 l-15 -43 68 0 c75 0 80 4 80 69
0 39 -28 81 -55 81 -8 0 -25 -15 -39 -32z"/>
<path d="M0 65 c0 -64 1 -65 155 -65 l110 0 -85 35 c-47 19 -106 46 -132 59
l-48 23 0 -52z"/>
</g>
</svg>
