<?xml version="1.0" standalone="no"?>
<!DOCTYPE svg PUBLIC "-//W3C//DTD SVG 20010904//EN"
 "http://www.w3.org/TR/2001/REC-SVG-20010904/DTD/svg10.dtd">
<svg version="1.0" xmlns="http://www.w3.org/2000/svg"
 width="700.000000pt" height="700.000000pt" viewBox="0 0 700.000000 700.000000"
 preserveAspectRatio="xMidYMid meet">
<metadata>
Created by potrace 1.14, written by Peter Selinger 2001-2017
</metadata>
<g transform="translate(0.000000,700.000000) scale(0.100000,-0.100000)"
fill="#000000" stroke="none">
<path d="M2068 6509 c-10 -5 -23 -19 -29 -30 -13 -25 -16 -19 188 -376 125
-220 153 -275 145 -290 -6 -10 -36 -49 -66 -88 -90 -112 -169 -292 -197 -450
-20 -110 -15 -736 6 -850 11 -57 79 -160 154 -235 78 -78 184 -146 296 -193
61 -26 215 -72 270 -82 28 -5 44 -8 104 -20 13 -2 49 -7 80 -10 31 -4 67 -8
81 -11 41 -6 239 -17 330 -17 89 -1 341 12 350 18 3 1 28 6 55 9 316 41 602
166 752 330 67 74 109 145 129 220 18 68 14 859 -5 921 -35 117 -88 220 -192
377 l-57 86 32 74 c31 71 77 156 218 402 93 164 98 204 26 221 -25 6 -31 1
-85 -80 -32 -48 -112 -178 -178 -289 -141 -236 -121 -225 -281 -150 -157 73
-274 113 -379 130 -22 3 -42 7 -45 9 -14 9 -210 19 -355 19 -353 0 -529 -36
-783 -161 -73 -36 -135 -64 -136 -62 -7 8 -112 169 -127 196 -49 84 -158 257
-202 320 -50 72 -66 82 -99 62z m1722 -513 c104 -19 248 -69 344 -119 194
-101 315 -239 420 -479 32 -72 39 -197 39 -669 0 -260 0 -266 -24 -314 -50
-101 -185 -221 -319 -283 -128 -59 -203 -80 -380 -106 -133 -20 -636 -28 -814
-13 -237 20 -446 84 -586 178 -63 42 -162 143 -206 209 l-30 45 3 165 c1 91 4
296 6 455 l4 290 47 94 c89 178 167 270 313 372 126 87 345 171 483 186 30 3
57 7 60 10 11 10 570 -7 640 -21z"/>
<path d="M3067 5404 c-1 -1 -47 -5 -102 -8 -171 -10 -208 -16 -270 -46 -103
-50 -231 -181 -283 -290 -61 -130 -59 -322 6 -448 55 -106 175 -225 277 -273
82 -38 127 -40 801 -42 l571 -1 59 33 c136 77 223 167 289 298 83 166 75 313
-25 483 -46 79 -139 173 -214 219 -104 62 -209 73 -749 75 -197 1 -359 1 -360
0z m763 -134 c162 -4 217 -13 286 -48 62 -31 139 -115 176 -190 30 -60 33 -74
33 -161 0 -146 -21 -220 -86 -302 -74 -93 -175 -137 -338 -147 -157 -9 -919
-8 -1008 1 -87 9 -168 32 -208 59 -52 36 -113 108 -143 171 -66 137 -65 248 1
385 72 149 177 215 367 231 74 6 616 6 920 1z"/>
<path d="M2830 5019 c-54 -22 -100 -102 -102 -175 -1 -80 56 -155 146 -189 44
-17 48 -17 93 0 87 34 136 95 147 183 5 43 -42 142 -80 167 -34 22 -164 31
-204 14z m126 -130 c17 -14 18 -71 2 -87 -20 -20 -76 -15 -88 7 -34 64 32 125
86 80z"/>
<path d="M3816 5015 c-83 -44 -125 -155 -88 -237 20 -45 78 -103 119 -119 61
-23 159 3 204 55 80 92 59 243 -41 294 -53 26 -149 30 -194 7z m141 -134 c30
-40 0 -104 -45 -96 -9 2 -20 4 -24 4 -4 1 -15 12 -24 26 -14 21 -14 30 -4 55
17 42 69 48 97 11z"/>
<path d="M333 3002 c-24 -2 -43 -4 -43 -5 0 -1 22 -70 49 -152 27 -83 86 -265
132 -405 l83 -255 73 220 c40 121 73 229 74 240 2 24 -97 335 -111 349 -9 9
-171 14 -257 8z"/>
<path d="M1014 2995 c-8 -20 -107 -332 -124 -390 -10 -33 -58 -181 -105 -330
-48 -148 -90 -278 -92 -287 -6 -19 1 -20 112 -20 19 0 59 1 88 1 l52 1 100
305 c54 168 102 302 106 298 5 -6 94 -279 103 -318 1 -5 33 84 70 199 l68 208
-47 156 c-26 87 -50 161 -55 166 -8 8 -64 13 -214 19 -33 2 -60 -2 -62 -8z"/>
<path d="M1759 3002 c-15 -2 -34 -11 -42 -20 -8 -9 -47 -116 -87 -237 -39
-121 -80 -245 -90 -275 -10 -30 -41 -129 -70 -220 -28 -91 -58 -187 -67 -214
-19 -60 -13 -65 72 -67 64 -1 179 1 181 4 0 1 76 229 167 506 127 382 164 507
155 513 -7 4 -29 8 -48 9 -112 3 -148 4 -171 1z"/>
<path d="M2136 3002 c-3 -2 4 -16 15 -31 11 -14 52 -71 91 -126 38 -55 82
-112 96 -127 25 -27 26 -27 45 -10 38 33 137 163 137 180 0 24 -35 79 -58 91
-11 6 -70 13 -133 17 -63 3 -131 7 -151 9 -21 1 -40 0 -42 -3z"/>
<path d="M2960 3002 c-55 -4 -75 -10 -96 -29 -30 -27 -202 -257 -485 -648
-210 -291 -239 -332 -239 -344 0 -7 27 -11 68 -12 187 -1 246 1 252 8 8 8 356
499 577 813 67 96 123 181 123 187 0 7 -10 15 -22 18 -29 7 -132 11 -178 7z"/>
<path d="M3275 3001 c-2 -2 7 -21 21 -43 14 -22 33 -54 43 -71 10 -18 88 -147
173 -287 l154 -255 -1 -187 c0 -181 1 -188 20 -188 46 -1 203 -2 235 -1 l35 1
0 184 c1 181 1 184 27 222 14 22 92 152 173 289 81 138 158 266 171 286 l23
37 -22 4 c-12 2 -69 5 -127 7 -99 2 -107 1 -127 -21 -25 -27 -130 -189 -197
-306 -43 -74 -50 -81 -61 -65 -26 38 -195 324 -195 331 0 4 -10 20 -23 36
l-23 28 -148 2 c-81 0 -149 -1 -151 -3z"/>
<path d="M4579 3000 c-6 -46 -1 -213 6 -218 5 -3 98 -7 205 -8 321 -3 393 -18
467 -96 78 -81 99 -211 49 -311 -35 -72 -87 -122 -146 -142 -58 -19 -299 -27
-301 -10 -4 25 -7 77 -10 158 -2 48 -6 88 -9 88 -32 7 -260 2 -261 -6 0 -5 -2
-119 -2 -251 l-2 -242 110 4 c61 1 198 5 305 8 214 6 234 9 300 33 293 108
418 428 281 716 -66 139 -211 230 -411 261 -101 16 -579 29 -581 16z"/>
<path d="M5930 3000 c-4 -3 -7 -54 -6 -115 l1 -110 413 0 413 0 -3 98 c-1 54
-6 103 -9 109 -5 7 -105 12 -300 15 -162 2 -341 5 -397 6 -57 1 -107 0 -112
-3z"/>
<path d="M5924 2485 l1 -105 412 0 413 0 0 105 0 105 -414 0 -413 0 1 -105z"/>
<path d="M2895 2208 c-88 -110 -93 -121 -71 -161 35 -65 55 -72 213 -73 79 0
147 2 153 6 10 6 -200 301 -219 308 -5 2 -39 -34 -76 -80z"/>
<path d="M5929 2195 c-1 0 -3 -51 -4 -112 l-2 -113 66 -1 c36 0 223 -1 414 -2
l348 -2 -2 90 c-5 148 25 131 -242 134 -128 1 -310 3 -404 4 -95 1 -174 2
-174 2z"/>
<path d="M3335 1873 c-188 -35 -333 -140 -410 -298 -39 -79 -46 -113 -45 -235
0 -107 6 -141 38 -210 121 -264 421 -379 729 -279 61 20 155 75 203 121 205
190 211 543 11 738 -65 64 -166 119 -266 146 -56 15 -215 25 -260 17z m230
-268 c50 -29 96 -79 127 -138 32 -61 32 -184 0 -249 -39 -79 -109 -135 -192
-154 -53 -11 -138 -6 -175 12 -37 17 -119 99 -140 141 -17 33 -21 207 -5 248
11 29 104 131 135 148 61 32 188 29 250 -8z"/>
<path d="M1937 1859 c-10 -6 -15 -142 -8 -214 1 -6 69 -10 183 -10 l183 0 0
-240 c0 -268 -1 -272 -73 -327 -56 -44 -107 -35 -195 34 -32 26 -40 28 -55 17
-28 -22 -142 -143 -142 -152 0 -5 17 -24 38 -43 183 -165 558 -138 653 48 11
21 26 78 33 126 14 99 22 761 9 763 -34 5 -617 3 -626 -2z"/>
<path d="M4195 1862 c-45 -7 -47 -10 -29 -44 9 -18 69 -118 132 -223 63 -104
123 -203 132 -220 9 -16 37 -61 60 -100 l44 -70 0 -187 1 -188 145 0 145 0 1
198 1 197 156 259 c86 142 157 260 157 262 0 3 11 22 25 44 33 52 32 70 -2 71
-128 4 -210 5 -221 1 -7 -2 -67 -97 -134 -209 l-122 -205 -18 24 c-9 12 -18
26 -18 29 0 6 -198 348 -207 359 -5 5 -217 7 -248 2z"/>
</g>
</svg>
