<?xml version="1.0" standalone="no"?>
<!DOCTYPE svg PUBLIC "-//W3C//DTD SVG 20010904//EN"
 "http://www.w3.org/TR/2001/REC-SVG-20010904/DTD/svg10.dtd">
<svg version="1.0" xmlns="http://www.w3.org/2000/svg"
 width="617.000000pt" height="617.000000pt" viewBox="0 0 617.000000 617.000000"
 preserveAspectRatio="xMidYMid meet">
<metadata>
Created by potrace 1.14, written by Peter Selinger 2001-2017
</metadata>
<g transform="translate(0.000000,617.000000) scale(0.100000,-0.100000)"
fill="#000000" stroke="none">
<path d="M3102 4528 c-8 -8 -12 -59 -12 -162 l0 -150 -27 27 c-42 39 -111 67
-168 66 -103 0 -177 -47 -224 -140 -75 -149 -17 -322 129 -388 39 -18 66 -21
207 -21 150 0 163 1 173 19 6 13 10 148 10 371 0 223 -4 358 -10 371 -12 22
-59 26 -78 7z m-98 -331 c110 -62 115 -252 9 -321 -99 -64 -213 -30 -264 79
-42 90 -10 193 76 246 43 27 129 25 179 -4z"/>
<path d="M513 4303 c-7 -2 -13 -19 -13 -37 0 -35 142 -469 161 -492 15 -19 53
-18 69 1 7 9 36 97 65 198 29 100 55 175 59 167 3 -8 25 -91 50 -183 25 -93
50 -175 57 -183 18 -21 57 -17 73 9 8 12 48 127 90 254 82 249 85 273 31 273
-35 0 -46 -22 -106 -213 -29 -92 -56 -164 -59 -160 -4 5 -26 84 -50 177 -44
169 -56 196 -90 196 -33 0 -45 -25 -95 -196 -26 -93 -51 -173 -53 -178 -3 -6
-31 70 -62 167 -32 97 -63 184 -70 192 -12 15 -34 18 -57 8z"/>
<path d="M1368 4299 c-32 -18 -19 -47 65 -146 46 -54 86 -104 90 -110 5 -8
-24 -52 -78 -119 -47 -58 -85 -112 -85 -118 0 -7 6 -20 13 -31 25 -33 58 -11
140 95 l78 100 82 -97 c94 -111 109 -123 135 -107 43 27 30 50 -136 246 -13
15 -6 28 67 122 82 106 96 141 66 166 -26 21 -53 0 -127 -100 -40 -55 -76 -99
-79 -100 -4 0 -40 39 -80 87 -112 134 -113 134 -151 112z"/>
<path d="M1984 4289 c-18 -20 -17 -22 56 -162 41 -78 95 -181 120 -228 l44
-86 -52 -119 c-29 -66 -52 -127 -52 -137 0 -20 41 -42 63 -34 21 8 340 732
333 755 -8 25 -55 38 -71 20 -7 -7 -47 -92 -90 -188 -42 -96 -80 -179 -85
-184 -5 -5 -51 75 -104 181 -104 208 -121 227 -162 182z"/>
<path d="M3606 4294 c-88 -32 -147 -105 -167 -206 -34 -170 94 -328 266 -328
74 0 156 24 191 57 21 19 23 26 14 43 -17 32 -38 35 -87 10 -62 -31 -123 -37
-176 -16 -51 19 -100 68 -115 114 l-11 32 203 0 c144 0 205 3 214 12 30 30 5
151 -45 216 -54 72 -188 103 -287 66z m169 -84 c26 -13 49 -34 63 -59 41 -72
42 -71 -143 -71 -154 0 -165 1 -165 19 0 32 44 85 90 109 55 27 101 28 155 2z"/>
<path d="M4177 4292 c-14 -15 -17 -58 -19 -306 l-3 -288 -36 -32 c-25 -23 -50
-35 -83 -40 -49 -8 -68 -30 -58 -68 6 -25 19 -31 60 -30 84 3 158 47 195 115
21 40 22 54 25 338 3 263 1 298 -13 313 -21 21 -48 20 -68 -2z"/>
<path d="M4634 4286 c-103 -48 -154 -131 -154 -251 0 -85 23 -147 76 -199 106
-106 305 -102 402 8 50 57 65 101 66 191 0 68 -4 88 -27 131 -48 95 -135 144
-251 144 -43 0 -76 -7 -112 -24z m225 -95 c66 -48 90 -162 52 -248 -52 -112
-212 -131 -295 -33 -73 87 -52 223 44 288 48 32 149 29 199 -7z"/>
<path d="M5175 4286 c-15 -23 -12 -32 100 -243 63 -121 115 -225 115 -231 0
-7 -23 -63 -50 -125 -28 -61 -49 -121 -48 -132 4 -27 53 -44 72 -24 21 21 326
713 326 738 0 26 -44 50 -66 35 -9 -5 -42 -70 -75 -144 -33 -74 -71 -160 -85
-190 l-26 -55 -90 180 c-50 99 -97 188 -106 198 -21 24 -49 21 -67 -7z"/>
<path d="M2340 3200 c0 -180 18 -206 23 -32 2 76 6 109 11 95 5 -13 12 -23 17
-23 16 0 9 30 -11 50 -11 11 -20 29 -20 40 0 11 -4 20 -10 20 -6 0 -10 -57
-10 -150z"/>
<path d="M2470 3325 c0 -21 -5 -25 -30 -25 -16 0 -30 -4 -30 -10 0 -5 14 -10
30 -10 28 0 30 -2 30 -40 l0 -40 -40 0 c-22 0 -40 -4 -40 -10 0 -5 18 -10 39
-10 35 0 39 -2 33 -22 -3 -11 -23 -38 -45 -60 -23 -22 -33 -38 -25 -38 23 0
63 36 81 71 l15 32 15 -29 c23 -44 63 -78 83 -70 15 6 13 10 -14 26 -26 16
-62 65 -62 85 0 3 20 5 45 5 25 0 45 5 45 10 0 6 -7 10 -15 10 -11 0 -15 12
-15 49 l0 50 -37 3 c-31 2 -39 7 -41 26 -5 30 -22 28 -22 -3z m78 -82 c-3 -33
-6 -38 -28 -38 -22 0 -25 5 -28 38 -3 35 -2 37 28 37 30 0 31 -2 28 -37z"/>
<path d="M2925 3340 c-27 -5 -73 -9 -101 -9 l-51 -1 -7 -42 c-3 -24 -9 -53
-12 -65 -6 -22 -4 -23 55 -23 l61 0 0 -60 c0 -57 -1 -60 -25 -60 -14 0 -25 -4
-25 -10 0 -5 15 -10 34 -10 40 0 46 11 46 86 l0 54 60 0 c33 0 60 4 60 10 0 6
-26 10 -59 10 l-60 0 -3 33 c-2 17 -7 32 -13 32 -5 0 -11 -15 -13 -32 -3 -32
-5 -33 -49 -33 -42 0 -45 2 -39 23 3 12 6 32 6 45 0 20 5 22 48 23 78 1 145
13 150 27 2 6 0 11 -5 11 -4 -1 -30 -5 -58 -9z"/>
<path d="M3780 3320 c0 -28 -2 -30 -40 -30 -22 0 -40 -4 -40 -10 0 -5 18 -10
40 -10 l40 0 0 -95 c0 -88 -1 -95 -20 -95 -11 0 -20 -4 -20 -10 0 -5 14 -10
30 -10 30 0 30 0 30 57 l0 56 29 -41 c32 -43 49 -57 58 -48 4 3 -5 19 -19 34
-31 32 -53 75 -63 120 l-7 32 46 0 c58 0 61 18 4 22 -39 3 -43 6 -46 31 -4 37
-22 35 -22 -3z"/>
<path d="M3830 3342 c0 -11 41 -34 48 -28 3 4 -3 13 -14 21 -21 16 -34 19 -34
7z"/>
<path d="M3200 3285 c0 -30 5 -55 10 -55 17 0 11 -17 -16 -50 -29 -34 -25 -53
4 -27 24 22 102 23 102 2 0 -11 -12 -15 -45 -15 -25 0 -45 -4 -45 -10 0 -5 20
-10 45 -10 38 0 45 -3 45 -20 0 -18 -7 -20 -65 -20 -37 0 -65 -4 -65 -10 0 -6
53 -10 140 -10 87 0 140 4 140 10 0 6 -28 10 -65 10 -58 0 -65 2 -65 20 0 17
7 20 50 20 28 0 50 5 50 10 0 6 -22 10 -50 10 -38 0 -50 4 -50 15 0 12 13 15
55 15 30 0 55 5 55 10 0 6 -25 10 -55 10 -42 0 -55 3 -55 15 0 8 -4 15 -10 15
-5 0 -10 -7 -10 -15 0 -10 -10 -15 -33 -15 -26 0 -33 4 -33 20 0 19 7 20 93
20 l93 0 0 55 0 55 -110 0 -110 0 0 -55z m198 23 c-3 -9 -30 -13 -88 -13 -58
0 -85 4 -87 13 -4 9 18 12 87 12 69 0 91 -3 88 -12z m0 -50 c-3 -9 -30 -13
-88 -13 -58 0 -85 4 -87 13 -4 9 18 12 87 12 69 0 91 -3 88 -12z"/>
<path d="M3600 3315 c0 -8 9 -15 20 -15 16 0 20 -7 20 -31 0 -22 -5 -32 -20
-36 -11 -3 -20 -9 -20 -14 0 -5 9 -9 20 -9 16 0 20 -7 20 -35 0 -28 -5 -38
-25 -47 -24 -11 -34 -28 -17 -28 21 0 102 33 102 42 0 5 -9 6 -20 3 -17 -6
-20 -2 -20 29 0 25 4 36 15 36 8 0 15 5 15 10 0 6 -7 10 -15 10 -10 0 -15 11
-15 35 0 28 4 35 20 35 11 0 20 7 20 15 0 11 -12 15 -50 15 -38 0 -50 -4 -50
-15z"/>
<path d="M2303 3252 c-6 -23 -7 -45 -2 -47 11 -7 22 35 17 66 -3 19 -6 15 -15
-19z"/>
<path d="M3710 3245 c0 -17 26 -55 37 -55 11 0 11 6 -4 30 -15 26 -33 40 -33
25z"/>
<path d="M3847 3220 c-20 -33 -9 -41 15 -12 25 29 30 42 16 42 -8 0 -22 -13
-31 -30z"/>
<path d="M2763 3130 c-37 -43 -39 -50 -19 -50 12 0 66 67 66 83 0 16 -17 4
-47 -33z"/>
<path d="M2950 3159 c0 -13 53 -79 64 -79 12 0 0 27 -27 60 -23 30 -37 37 -37
19z"/>
<path d="M3717 3134 c-21 -14 -35 -29 -32 -34 3 -5 24 2 45 16 22 15 37 30 34
35 -6 11 -2 13 -47 -17z"/>
<path d="M2995 2661 c-87 -39 -155 -131 -155 -208 l0 -33 255 0 255 0 0 33 c0
17 -11 55 -24 82 -41 90 -129 145 -231 145 -37 0 -75 -7 -100 -19z m129 -57
c33 -32 8 -84 -39 -84 -24 0 -45 25 -45 54 0 20 28 46 50 46 10 0 26 -7 34
-16z m116 -99 c17 -20 5 -45 -20 -45 -11 0 -23 7 -26 15 -6 15 11 45 26 45 4
0 13 -7 20 -15z"/>
<path d="M2840 2390 c0 -19 7 -20 255 -20 248 0 255 1 255 20 0 19 -7 20 -255
20 -248 0 -255 -1 -255 -20z"/>
<path d="M2710 2210 c0 -133 1 -140 20 -140 19 0 20 -7 20 -110 0 -67 -4 -110
-10 -110 -13 0 -13 -111 0 -144 7 -20 16 -26 40 -26 l30 0 0 335 0 335 -50 0
-50 0 0 -140z"/>
<path d="M2840 2060 l0 -290 255 0 255 0 0 290 0 290 -255 0 -255 0 0 -290z
m396 237 c19 -19 -29 -26 -153 -26 -121 1 -133 3 -133 19 0 17 11 18 139 17
77 -1 143 -6 147 -10z m2 -66 c9 -3 0 -31 -10 -32 -7 0 -53 -2 -103 -5 -109
-6 -175 2 -175 21 0 7 10 16 23 18 16 4 250 1 265 -2z m-114 -87 c11 -4 16
-19 16 -49 0 -48 -19 -62 -66 -51 -21 6 -24 12 -24 50 0 26 5 46 13 49 18 8
43 8 61 1z m5 -128 c7 -8 11 -32 9 -53 -3 -37 -4 -38 -43 -38 -39 0 -40 1 -43
38 -4 44 11 67 43 67 12 0 28 -6 34 -14z m-1 -175 c5 -32 -23 -54 -49 -40 -19
10 -26 49 -12 63 4 4 19 6 33 4 18 -2 26 -10 28 -27z"/>
<path d="M3380 2015 l0 -335 30 0 c24 0 33 6 40 26 13 33 13 144 0 144 -6 0
-10 43 -10 110 0 103 1 110 20 110 19 0 20 7 20 140 l0 140 -50 0 -50 0 0
-335z"/>
<path d="M2875 1720 l39 -40 163 0 163 0 50 36 c27 20 50 38 50 40 0 2 -113 4
-252 4 l-252 0 39 -40z"/>
<path d="M2685 1648 c-7 -22 -35 -169 -35 -184 0 -11 20 -14 90 -14 l90 0 0
105 0 105 -70 0 c-48 0 -72 -4 -75 -12z"/>
<path d="M3360 1555 l0 -105 90 0 c103 0 98 -7 75 102 -25 116 -17 108 -96
108 l-69 0 0 -105z"/>
</g>
</svg>
